<mxfile host="app.diagrams.net" agent="Mozilla/5.0 (Macintosh; Intel Mac OS X 10_15_7) AppleWebKit/537.36 (KHTML, like Gecko) Chrome/128.0.0.0 Safari/537.36" version="24.7.12">
  <diagram id="C5RBs43oDa-KdzZeNtuy" name="Page-1">
    <mxGraphModel dx="1774" dy="1070" grid="1" gridSize="10" guides="1" tooltips="1" connect="1" arrows="1" fold="1" page="1" pageScale="3" pageWidth="827" pageHeight="1169" math="0" shadow="0">
      <root>
        <mxCell id="WIyWlLk6GJQsqaUBKTNV-0" />
        <mxCell id="WIyWlLk6GJQsqaUBKTNV-1" parent="WIyWlLk6GJQsqaUBKTNV-0" />
        <mxCell id="c4m5hIjTChqQx9DOY_w0-4" value="Vehicle" style="swimlane;fontStyle=0;childLayout=stackLayout;horizontal=1;startSize=26;fillColor=none;horizontalStack=0;resizeParent=1;resizeParentMax=0;resizeLast=0;collapsible=1;marginBottom=0;whiteSpace=wrap;html=1;" parent="WIyWlLk6GJQsqaUBKTNV-1" vertex="1">
          <mxGeometry x="1852" y="943" width="150" height="160" as="geometry" />
        </mxCell>
        <mxCell id="c4m5hIjTChqQx9DOY_w0-10" value="" style="curved=1;endArrow=classic;html=1;rounded=0;" parent="c4m5hIjTChqQx9DOY_w0-4" edge="1">
          <mxGeometry width="50" height="50" relative="1" as="geometry">
            <mxPoint x="148" y="77" as="sourcePoint" />
            <mxPoint x="238" y="-83" as="targetPoint" />
            <Array as="points">
              <mxPoint x="198" y="77" />
              <mxPoint x="148" y="27" />
            </Array>
          </mxGeometry>
        </mxCell>
        <mxCell id="c4m5hIjTChqQx9DOY_w0-5" value="Id&lt;div&gt;&lt;span style=&quot;background-color: initial;&quot;&gt;String VehicalNumber&lt;br&gt;ENUM VehicleStatus&lt;/span&gt;&lt;br&gt;&lt;/div&gt;" style="text;strokeColor=none;fillColor=none;align=left;verticalAlign=top;spacingLeft=4;spacingRight=4;overflow=hidden;rotatable=0;points=[[0,0.5],[1,0.5]];portConstraint=eastwest;whiteSpace=wrap;html=1;" parent="c4m5hIjTChqQx9DOY_w0-4" vertex="1">
          <mxGeometry y="26" width="150" height="134" as="geometry" />
        </mxCell>
        <mxCell id="c4m5hIjTChqQx9DOY_w0-14" value="VehicalStatus{&lt;br&gt;ACTIVE,&lt;br&gt;INACTIVE&lt;br&gt;}" style="html=1;whiteSpace=wrap;" parent="WIyWlLk6GJQsqaUBKTNV-1" vertex="1">
          <mxGeometry x="2090" y="790" width="110" height="90" as="geometry" />
        </mxCell>
        <mxCell id="c4m5hIjTChqQx9DOY_w0-15" value="" style="shape=flexArrow;endArrow=classic;html=1;rounded=0;" parent="WIyWlLk6GJQsqaUBKTNV-1" source="c4m5hIjTChqQx9DOY_w0-5" edge="1">
          <mxGeometry width="50" height="50" relative="1" as="geometry">
            <mxPoint x="1710" y="1020" as="sourcePoint" />
            <mxPoint x="1850" y="1230" as="targetPoint" />
          </mxGeometry>
        </mxCell>
        <mxCell id="c4m5hIjTChqQx9DOY_w0-16" value="" style="shape=flexArrow;endArrow=classic;html=1;rounded=0;exitX=0.833;exitY=0.983;exitDx=0;exitDy=0;exitPerimeter=0;" parent="WIyWlLk6GJQsqaUBKTNV-1" source="c4m5hIjTChqQx9DOY_w0-5" edge="1">
          <mxGeometry width="50" height="50" relative="1" as="geometry">
            <mxPoint x="2040" y="1250" as="sourcePoint" />
            <mxPoint x="2090" y="1200" as="targetPoint" />
          </mxGeometry>
        </mxCell>
        <mxCell id="c4m5hIjTChqQx9DOY_w0-17" value="CAR" style="swimlane;fontStyle=0;childLayout=stackLayout;horizontal=1;startSize=26;fillColor=none;horizontalStack=0;resizeParent=1;resizeParentMax=0;resizeLast=0;collapsible=1;marginBottom=0;whiteSpace=wrap;html=1;" parent="WIyWlLk6GJQsqaUBKTNV-1" vertex="1">
          <mxGeometry x="1740" y="1230" width="140" height="52" as="geometry" />
        </mxCell>
        <mxCell id="c4m5hIjTChqQx9DOY_w0-21" value="BIKE" style="swimlane;fontStyle=0;childLayout=stackLayout;horizontal=1;startSize=26;fillColor=none;horizontalStack=0;resizeParent=1;resizeParentMax=0;resizeLast=0;collapsible=1;marginBottom=0;whiteSpace=wrap;html=1;" parent="WIyWlLk6GJQsqaUBKTNV-1" vertex="1">
          <mxGeometry x="2060" y="1200" width="140" height="52" as="geometry" />
        </mxCell>
        <mxCell id="c4m5hIjTChqQx9DOY_w0-74" style="edgeStyle=orthogonalEdgeStyle;rounded=0;orthogonalLoop=1;jettySize=auto;html=1;entryX=1;entryY=0.5;entryDx=0;entryDy=0;" parent="WIyWlLk6GJQsqaUBKTNV-1" source="c4m5hIjTChqQx9DOY_w0-33" target="c4m5hIjTChqQx9DOY_w0-38" edge="1">
          <mxGeometry relative="1" as="geometry" />
        </mxCell>
        <mxCell id="c4m5hIjTChqQx9DOY_w0-33" value="Store" style="swimlane;fontStyle=0;childLayout=stackLayout;horizontal=1;startSize=26;fillColor=none;horizontalStack=0;resizeParent=1;resizeParentMax=0;resizeLast=0;collapsible=1;marginBottom=0;whiteSpace=wrap;html=1;" parent="WIyWlLk6GJQsqaUBKTNV-1" vertex="1">
          <mxGeometry x="900" y="1000" width="150" height="86" as="geometry" />
        </mxCell>
        <mxCell id="c4m5hIjTChqQx9DOY_w0-79" value="List&amp;lt;Reservation&amp;gt;&lt;br&gt;Location&lt;br&gt;VehicalInventoryManager" style="text;html=1;align=center;verticalAlign=middle;resizable=0;points=[];autosize=1;strokeColor=none;fillColor=none;" parent="c4m5hIjTChqQx9DOY_w0-33" vertex="1">
          <mxGeometry y="26" width="150" height="60" as="geometry" />
        </mxCell>
        <mxCell id="c4m5hIjTChqQx9DOY_w0-38" value="Location" style="swimlane;fontStyle=0;childLayout=stackLayout;horizontal=1;startSize=26;fillColor=none;horizontalStack=0;resizeParent=1;resizeParentMax=0;resizeLast=0;collapsible=1;marginBottom=0;whiteSpace=wrap;html=1;" parent="WIyWlLk6GJQsqaUBKTNV-1" vertex="1">
          <mxGeometry x="560" y="985" width="140" height="116" as="geometry" />
        </mxCell>
        <mxCell id="c4m5hIjTChqQx9DOY_w0-80" value="Address&lt;br&gt;City&lt;br&gt;State&lt;br&gt;Country&lt;div&gt;&lt;br&gt;&lt;/div&gt;" style="text;html=1;align=center;verticalAlign=middle;resizable=0;points=[];autosize=1;strokeColor=none;fillColor=none;" parent="c4m5hIjTChqQx9DOY_w0-38" vertex="1">
          <mxGeometry y="26" width="140" height="90" as="geometry" />
        </mxCell>
        <mxCell id="c4m5hIjTChqQx9DOY_w0-73" style="edgeStyle=orthogonalEdgeStyle;rounded=0;orthogonalLoop=1;jettySize=auto;html=1;entryX=0;entryY=0.5;entryDx=0;entryDy=0;" parent="WIyWlLk6GJQsqaUBKTNV-1" source="c4m5hIjTChqQx9DOY_w0-42" target="c4m5hIjTChqQx9DOY_w0-5" edge="1">
          <mxGeometry relative="1" as="geometry" />
        </mxCell>
        <mxCell id="c4m5hIjTChqQx9DOY_w0-42" value="VehicalInventorymanager" style="swimlane;fontStyle=0;childLayout=stackLayout;horizontal=1;startSize=26;fillColor=none;horizontalStack=0;resizeParent=1;resizeParentMax=0;resizeLast=0;collapsible=1;marginBottom=0;whiteSpace=wrap;html=1;" parent="WIyWlLk6GJQsqaUBKTNV-1" vertex="1">
          <mxGeometry x="1371" y="943" width="140" height="66" as="geometry" />
        </mxCell>
        <mxCell id="c4m5hIjTChqQx9DOY_w0-64" value="List&amp;lt;Vehicle&amp;gt;&lt;br&gt;//CRUD" style="text;html=1;align=center;verticalAlign=middle;resizable=0;points=[];autosize=1;strokeColor=none;fillColor=none;" parent="c4m5hIjTChqQx9DOY_w0-42" vertex="1">
          <mxGeometry y="26" width="140" height="40" as="geometry" />
        </mxCell>
        <mxCell id="c4m5hIjTChqQx9DOY_w0-49" value="Reservation" style="swimlane;fontStyle=0;childLayout=stackLayout;horizontal=1;startSize=26;fillColor=none;horizontalStack=0;resizeParent=1;resizeParentMax=0;resizeLast=0;collapsible=1;marginBottom=0;whiteSpace=wrap;html=1;" parent="WIyWlLk6GJQsqaUBKTNV-1" vertex="1">
          <mxGeometry x="1230" y="400" width="180" height="186" as="geometry" />
        </mxCell>
        <mxCell id="c4m5hIjTChqQx9DOY_w0-61" value="reservationID&lt;div&gt;User user&lt;/div&gt;&lt;div&gt;Vehical vehical&lt;/div&gt;&lt;div&gt;Date bookingfrom&lt;/div&gt;&lt;div&gt;Date bookingtill&lt;/div&gt;&lt;div&gt;Store store&lt;/div&gt;&lt;div&gt;ReseravationStatus - ENUM&lt;/div&gt;&lt;div&gt;&lt;br&gt;&lt;/div&gt;&lt;div&gt;&lt;br&gt;&lt;div&gt;&lt;br&gt;&lt;/div&gt;&lt;/div&gt;" style="text;html=1;align=center;verticalAlign=middle;resizable=0;points=[];autosize=1;strokeColor=none;fillColor=none;" parent="c4m5hIjTChqQx9DOY_w0-49" vertex="1">
          <mxGeometry y="26" width="180" height="160" as="geometry" />
        </mxCell>
        <mxCell id="c4m5hIjTChqQx9DOY_w0-56" value="Payment" style="swimlane;fontStyle=0;childLayout=stackLayout;horizontal=1;startSize=26;fillColor=none;horizontalStack=0;resizeParent=1;resizeParentMax=0;resizeLast=0;collapsible=1;marginBottom=0;whiteSpace=wrap;html=1;" parent="WIyWlLk6GJQsqaUBKTNV-1" vertex="1">
          <mxGeometry x="1890" y="480" width="140" height="52" as="geometry" />
        </mxCell>
        <mxCell id="c4m5hIjTChqQx9DOY_w0-78" style="edgeStyle=orthogonalEdgeStyle;rounded=0;orthogonalLoop=1;jettySize=auto;html=1;exitX=1;exitY=0.5;exitDx=0;exitDy=0;entryX=0;entryY=0.5;entryDx=0;entryDy=0;" parent="WIyWlLk6GJQsqaUBKTNV-1" source="c4m5hIjTChqQx9DOY_w0-57" target="c4m5hIjTChqQx9DOY_w0-56" edge="1">
          <mxGeometry relative="1" as="geometry" />
        </mxCell>
        <mxCell id="c4m5hIjTChqQx9DOY_w0-85" style="edgeStyle=orthogonalEdgeStyle;rounded=0;orthogonalLoop=1;jettySize=auto;html=1;" parent="WIyWlLk6GJQsqaUBKTNV-1" source="c4m5hIjTChqQx9DOY_w0-57" target="c4m5hIjTChqQx9DOY_w0-61" edge="1">
          <mxGeometry relative="1" as="geometry" />
        </mxCell>
        <mxCell id="c4m5hIjTChqQx9DOY_w0-57" value="Bill" style="swimlane;fontStyle=0;childLayout=stackLayout;horizontal=1;startSize=26;fillColor=none;horizontalStack=0;resizeParent=1;resizeParentMax=0;resizeLast=0;collapsible=1;marginBottom=0;whiteSpace=wrap;html=1;" parent="WIyWlLk6GJQsqaUBKTNV-1" vertex="1">
          <mxGeometry x="1530" y="480" width="190" height="52" as="geometry" />
        </mxCell>
        <mxCell id="c4m5hIjTChqQx9DOY_w0-82" style="edgeStyle=orthogonalEdgeStyle;rounded=0;orthogonalLoop=1;jettySize=auto;html=1;" parent="WIyWlLk6GJQsqaUBKTNV-1" source="c4m5hIjTChqQx9DOY_w0-58" target="c4m5hIjTChqQx9DOY_w0-63" edge="1">
          <mxGeometry relative="1" as="geometry" />
        </mxCell>
        <mxCell id="c4m5hIjTChqQx9DOY_w0-58" value="VehicalRentalSystem" style="swimlane;fontStyle=0;childLayout=stackLayout;horizontal=1;startSize=26;fillColor=none;horizontalStack=0;resizeParent=1;resizeParentMax=0;resizeLast=0;collapsible=1;marginBottom=0;whiteSpace=wrap;html=1;" parent="WIyWlLk6GJQsqaUBKTNV-1" vertex="1">
          <mxGeometry x="660" y="610" width="140" height="170" as="geometry" />
        </mxCell>
        <mxCell id="c4m5hIjTChqQx9DOY_w0-59" value="User" style="swimlane;fontStyle=0;childLayout=stackLayout;horizontal=1;startSize=26;fillColor=none;horizontalStack=0;resizeParent=1;resizeParentMax=0;resizeLast=0;collapsible=1;marginBottom=0;whiteSpace=wrap;html=1;" parent="WIyWlLk6GJQsqaUBKTNV-1" vertex="1">
          <mxGeometry x="650" y="290" width="160" height="86" as="geometry" />
        </mxCell>
        <mxCell id="c4m5hIjTChqQx9DOY_w0-63" value="String name&lt;div&gt;String Id&lt;/div&gt;&lt;div&gt;String DrivingLicence&lt;/div&gt;" style="text;html=1;align=center;verticalAlign=middle;resizable=0;points=[];autosize=1;strokeColor=none;fillColor=none;" parent="c4m5hIjTChqQx9DOY_w0-59" vertex="1">
          <mxGeometry y="26" width="160" height="60" as="geometry" />
        </mxCell>
        <mxCell id="c4m5hIjTChqQx9DOY_w0-69" value="CARInventory" style="swimlane;fontStyle=0;childLayout=stackLayout;horizontal=1;startSize=26;fillColor=none;horizontalStack=0;resizeParent=1;resizeParentMax=0;resizeLast=0;collapsible=1;marginBottom=0;whiteSpace=wrap;html=1;" parent="WIyWlLk6GJQsqaUBKTNV-1" vertex="1">
          <mxGeometry x="1241" y="1153" width="140" height="52" as="geometry" />
        </mxCell>
        <mxCell id="c4m5hIjTChqQx9DOY_w0-70" value="BikeInventory" style="swimlane;fontStyle=0;childLayout=stackLayout;horizontal=1;startSize=26;fillColor=none;horizontalStack=0;resizeParent=1;resizeParentMax=0;resizeLast=0;collapsible=1;marginBottom=0;whiteSpace=wrap;html=1;" parent="WIyWlLk6GJQsqaUBKTNV-1" vertex="1">
          <mxGeometry x="1521" y="1143" width="140" height="52" as="geometry" />
        </mxCell>
        <mxCell id="c4m5hIjTChqQx9DOY_w0-71" value="" style="shape=flexArrow;endArrow=classic;html=1;rounded=0;entryX=0.371;entryY=-0.022;entryDx=0;entryDy=0;entryPerimeter=0;exitX=0.262;exitY=0.992;exitDx=0;exitDy=0;exitPerimeter=0;" parent="WIyWlLk6GJQsqaUBKTNV-1" source="c4m5hIjTChqQx9DOY_w0-64" target="c4m5hIjTChqQx9DOY_w0-69" edge="1">
          <mxGeometry width="50" height="50" relative="1" as="geometry">
            <mxPoint x="1701" y="1043" as="sourcePoint" />
            <mxPoint x="1751" y="993" as="targetPoint" />
          </mxGeometry>
        </mxCell>
        <mxCell id="c4m5hIjTChqQx9DOY_w0-72" value="" style="shape=flexArrow;endArrow=classic;html=1;rounded=0;exitX=0.841;exitY=1.045;exitDx=0;exitDy=0;exitPerimeter=0;entryX=0.5;entryY=0;entryDx=0;entryDy=0;" parent="WIyWlLk6GJQsqaUBKTNV-1" source="c4m5hIjTChqQx9DOY_w0-64" target="c4m5hIjTChqQx9DOY_w0-70" edge="1">
          <mxGeometry width="50" height="50" relative="1" as="geometry">
            <mxPoint x="1641" y="983" as="sourcePoint" />
            <mxPoint x="1691" y="933" as="targetPoint" />
          </mxGeometry>
        </mxCell>
        <mxCell id="c4m5hIjTChqQx9DOY_w0-75" style="edgeStyle=orthogonalEdgeStyle;rounded=0;orthogonalLoop=1;jettySize=auto;html=1;exitX=1;exitY=0.5;exitDx=0;exitDy=0;entryX=0.031;entryY=0.031;entryDx=0;entryDy=0;entryPerimeter=0;" parent="WIyWlLk6GJQsqaUBKTNV-1" source="c4m5hIjTChqQx9DOY_w0-33" target="c4m5hIjTChqQx9DOY_w0-64" edge="1">
          <mxGeometry relative="1" as="geometry" />
        </mxCell>
        <mxCell id="c4m5hIjTChqQx9DOY_w0-76" style="edgeStyle=orthogonalEdgeStyle;rounded=0;orthogonalLoop=1;jettySize=auto;html=1;entryX=0.003;entryY=0.392;entryDx=0;entryDy=0;entryPerimeter=0;" parent="WIyWlLk6GJQsqaUBKTNV-1" source="c4m5hIjTChqQx9DOY_w0-33" target="c4m5hIjTChqQx9DOY_w0-61" edge="1">
          <mxGeometry relative="1" as="geometry" />
        </mxCell>
        <mxCell id="c4m5hIjTChqQx9DOY_w0-81" value="List&amp;lt;User&amp;gt;&lt;br&gt;List&amp;lt;Vehical&amp;gt;&lt;br&gt;&lt;br&gt;//CRUD" style="text;html=1;align=center;verticalAlign=middle;resizable=0;points=[];autosize=1;strokeColor=none;fillColor=none;" parent="WIyWlLk6GJQsqaUBKTNV-1" vertex="1">
          <mxGeometry x="685" y="648" width="90" height="70" as="geometry" />
        </mxCell>
        <mxCell id="c4m5hIjTChqQx9DOY_w0-84" style="edgeStyle=orthogonalEdgeStyle;rounded=0;orthogonalLoop=1;jettySize=auto;html=1;entryX=0.442;entryY=-0.002;entryDx=0;entryDy=0;entryPerimeter=0;" parent="WIyWlLk6GJQsqaUBKTNV-1" source="c4m5hIjTChqQx9DOY_w0-58" target="c4m5hIjTChqQx9DOY_w0-4" edge="1">
          <mxGeometry relative="1" as="geometry" />
        </mxCell>
      </root>
    </mxGraphModel>
  </diagram>
</mxfile>
